<svg xmlns="http://www.w3.org/2000/svg" width="32.997" height="32.993" viewBox="0 0 32.997 32.993">
  <g id="Layer_6" data-name="Layer 6" transform="translate(6.171 -9.189) rotate(14)">
    <path id="Path_15473" data-name="Path 15473" d="M17.313,18.284a.664.664,0,0,0,.664.664h5.377a.664.664,0,1,0,0-1.327H17.977A.664.664,0,0,0,17.313,18.284Z" transform="translate(4.807 2.881)" fill="#fff" opacity="0"/>
    <path id="Path_15474" data-name="Path 15474" d="M17.013,17.035a.664.664,0,0,0,.474-.2l3.971-4.051a.664.664,0,1,0-.949-.929l-3.964,4.049a.664.664,0,0,0,.474,1.128Z" transform="translate(4.493 0.93)" fill="#fff" opacity="0"/>
    <path id="Path_15475" data-name="Path 15475" d="M14,16.375a.664.664,0,0,0,.664-.664V10.335a.664.664,0,0,0-1.327,0v5.377A.664.664,0,0,0,14,16.375Z" transform="translate(3.506 0.28)" fill="#fff" opacity="0"/>
    <path id="Path_15476" data-name="Path 15476" d="M29.591,29.119a.664.664,0,0,0-.388-.466l-6.411-2.737a.664.664,0,0,0-.54.008,5.284,5.284,0,0,0-2.539,2.534,15.087,15.087,0,0,1-9.516-9.5,5.331,5.331,0,0,0,2.542-2.522.664.664,0,0,0,.012-.545L10,9.458h0a.7.7,0,0,0-.419-.385h0a5.325,5.325,0,0,0-6.96,5.065A21.767,21.767,0,0,0,23.9,36.016c.2.015.418.016.62.016s.417,0,.65-.019a5.316,5.316,0,0,0,4.672-5.277,5.082,5.082,0,0,0-.255-1.618Zm-4.546,5.574c-.17.012-.357.015-.522.012s-.353,0-.553-.013A20.455,20.455,0,0,1,3.951,14.133a4,4,0,0,1,3.995-3.995,4.056,4.056,0,0,1,.956.114l2.5,5.869a4.011,4.011,0,0,1-2.232,1.813.664.664,0,0,0-.431.819A16.414,16.414,0,0,0,19.917,29.912a.664.664,0,0,0,.819-.431,3.946,3.946,0,0,1,1.821-2.22l5.84,2.49a3.824,3.824,0,0,1,.123.986A3.982,3.982,0,0,1,25.045,34.693Z" transform="translate(0 0)" fill="#fff"/>
  </g>
</svg>
