<svg xmlns="http://www.w3.org/2000/svg" width="13.245" height="13.203" viewBox="0 0 13.245 13.203">
  <g id="Group_17588" data-name="Group 17588" transform="translate(-32.666 -33.357)">
    <path id="Path_15469" data-name="Path 15469" d="M82.292,118.662h0Z" transform="translate(-36.381 -72.101)" fill="#fff" fill-rule="evenodd"/>
    <path id="Path_15470" data-name="Path 15470" d="M37.072,34.723,32.93,42.967a2.48,2.48,0,0,0,2.216,3.594h8.285a2.48,2.48,0,0,0,2.216-3.594L41.5,34.723a2.48,2.48,0,0,0-4.432,0Zm1.089.547a1.261,1.261,0,0,1,2.254,0l4.143,8.243a1.261,1.261,0,0,1-1.127,1.827H35.146a1.261,1.261,0,0,1-1.127-1.827ZM39.9,43.664v-.057a.609.609,0,1,0-1.219,0v.057a.609.609,0,1,0,1.219,0Zm-1.219-6.735v4.947a.609.609,0,1,0,1.219,0V36.929a.609.609,0,1,0-1.219,0Z" fill="#fff" fill-rule="evenodd"/>
  </g>
</svg>
