<svg xmlns="http://www.w3.org/2000/svg" width="23.745" height="23.795" viewBox="0 0 23.745 23.795">
  <g id="Group_17611" data-name="Group 17611" transform="translate(-1692 -9257.001)">
    <path id="Path_15374" data-name="Path 15374" d="M8.134,15.078h4.92V30.951H8.134ZM10.643,7.19a2.853,2.853,0,1,1-2.023.842,2.853,2.853,0,0,1,2.023-.842" transform="translate(1684.21 9249.811)" fill="#fff"/>
    <path id="Path_15375" data-name="Path 15375" d="M12.926,12.155h4.739V14.32a5.182,5.182,0,0,1,4.674-2.558c4.92,0,5.92,3.28,5.92,7.56v8.708h-4.92V20.354c0-1.837,0-4.214-2.558-4.214s-2.952,2-2.952,4.067v7.855H12.91Z" transform="translate(1687.486 9252.734)" fill="#fff"/>
  </g>
</svg>
